<svg width="100mm" height="100mm" viewBox="0 0 100 100" xml:space="preserve" xmlns="http://www.w3.org/2000/svg"><path style="opacity:1;fill:none;stroke:#000;stroke-width:2;stroke-linecap:round;stroke-linejoin:round;stroke-dasharray:none" d="m40.842 15.544 16.708 8.881M67.939 30.106l16.643 8.61"/><circle style="opacity:1;fill:none;stroke:#000;stroke-width:2;stroke-linecap:round;stroke-linejoin:round;stroke-dasharray:none" cx="69.654" cy="-19.367" r=".92" transform="rotate(62.78)"/><path style="opacity:1;fill:none;stroke:#000;stroke-width:4;stroke-linecap:round;stroke-linejoin:round;stroke-dasharray:none" d="m37.65 13.536 3.154 1.829M88.066 40.5l-3-1.475"/><path style="opacity:1;fill:none;stroke:#000;stroke-width:2;stroke-linecap:round;stroke-linejoin:round;stroke-dasharray:none" d="m57.573 24.493 4.445 1.555 2.728 1.46 3.15 2.582c-2.305-.236-4.165-1.238-5.992.64-.135.14-.536-.166-.66.014.05-.248-.417-.258-.398-.485.237-2.811-1.403-4.314-3.273-5.766zM61.136 30.815 49.63 52.005"/><path style="opacity:1;fill:none;stroke:#000;stroke-width:1.41867618;stroke-linecap:round;stroke-linejoin:round;stroke-dasharray:none" d="M62.743 49.822c-.438.624-.708 1.353-.368 2.464l4.156 5.001c.834.339 1.66.712 2.685 0l4.303-3.64c.563-.993.613-1.986 0-2.98l-3.53-4.229c-1.303-.952-2.247-.828-3.164-.625z" transform="scale(-1.40976) rotate(71.281 89.571 -50.184)"/><path style="opacity:1;fill:none;stroke:#000;stroke-width:1.41867618;stroke-linecap:round;stroke-linejoin:round;stroke-dasharray:none" d="M67.12 45.74c.034.563.21 1.495.698 2.059l3.935 4.634c.724.635 1.092.804 1.913.956M63.295 53.72l-.956 1.067 1.912 2.243 1.103-.772M62.693 55.28 35.335 80.713l1.509 1.405 26.94-25.433M28.782 85.55l2.549 2.653 5.72-5.773-2.028-1.925zM28.366 85.29l-2.809 2.913c.293 1.701 1.447 2.905 2.913 3.068l3.017-2.86z" transform="scale(-1.40976) rotate(71.281 89.571 -50.184)"/></svg>