<svg width="100mm" height="100mm" viewBox="0 0 100 100" xml:space="preserve" xmlns="http://www.w3.org/2000/svg"><path style="opacity:1;fill:none;stroke:#000;stroke-width:2.1362;stroke-linecap:round;stroke-linejoin:round;stroke-dasharray:none" d="M15.741 46.358c-9.624 5.167 19.083 24.863 24.008 20.52l51.297-34.575c1.986-1.764-18.385-19.636-21.545-18.16zM91.56 31.892 86.121 53.95 68.27 66.57M38.312 67.493l-.307 10.054"/><path style="opacity:1;fill:none;stroke:#000;stroke-width:2.1362;stroke-linecap:round;stroke-linejoin:round;stroke-dasharray:none" d="M16.46 55.182C3.614 75.518 38.168 85.7 52.676 70.468c2.3.328 4.356 3.678 1.846 5.643C34.322 91.131-5.01 79.6 13.587 49.54"/><path style="opacity:1;fill:none;stroke:#000;stroke-width:2.1362;stroke-linecap:round;stroke-linejoin:round;stroke-dasharray:none" d="M54.317 76.111c.527 1.197 1.696 2.394-.102 3.591-13.477 7.074-30.774 13.626-43.911-8.105"/><path style="opacity:1;fill:none;stroke:#000;stroke-width:2.1362;stroke-linecap:round;stroke-linejoin:round;stroke-dasharray:none" d="m55.548 79.805 11.696-7.798 1.026-6.771-4.309-4.104-12.414 6.771-.308 3.489"/><path style="opacity:1;fill:none;stroke:#000;stroke-width:2.1362;stroke-linecap:round;stroke-linejoin:round;stroke-dasharray:none" d="m55.651 79.702 1.334-7.182-5.13-4.617M68.168 65.749 57.19 72.315M20.256 67.39l10.26 8.003 5.129-4.617-10.67-7.387zM20.974 68.52c-2.748.731-5.215.337-6.874-3.284M28.258 74.367c-5.634.89-6.466-.277-8.515-.923M24.257 70.879c-1.895 1.41-4.103.62-6.259.205M24.975 67.083l5.335 4.104M67.86 19.273 23.744 45.64l15.594 14.877 44.63-27.701zM10.36 59.04l3.773 1.161M30.89 46.426l31.122-19.048M33.793 49.371l20.73-13.17M36.726 52.346l12.667-7.937"/></svg>