<svg width="100mm" height="100mm" viewBox="0 0 100 100" xml:space="preserve" xmlns="http://www.w3.org/2000/svg"><g style="stroke-width:2;stroke-dasharray:none"><path style="opacity:1;fill:none;stroke:#000;stroke-width:2;stroke-linecap:round;stroke-linejoin:round;stroke-dasharray:none" d="M38.036 22.89 33.28 34.774l-.068 4.28M76.071 74.034l-13.516 1.018-8.286-2.105M37.968 22.686l2.988 4.958 21.056 4.754 13.38-.815M80.282 29.478l-4.686 2.173"/><path style="opacity:1;fill:none;stroke:#000;stroke-width:2;stroke-linecap:round;stroke-linejoin:round;stroke-dasharray:none" d="m75.935 73.626-5.909-4.483-.068-26.081 5.434-11.547M33.213 34.707l7.743-6.792"/><ellipse style="opacity:1;fill:none;stroke:#000;stroke-width:2;stroke-linecap:round;stroke-linejoin:round;stroke-dasharray:none" cx="10.695" cy="67.648" rx="8.069" ry="10.512" transform="rotate(-21.497)"/><path style="display:inline;opacity:1;fill:none;stroke:#000;stroke-width:2;stroke-linecap:round;stroke-linejoin:round;stroke-dasharray:none" d="M37.153 50.465c-12.306-.03-7.541 20.157 5.297 14.331"/><path style="opacity:1;fill:none;stroke:#000;stroke-width:2;stroke-linecap:round;stroke-linejoin:round;stroke-dasharray:none" d="m61.944 32.534 8.082 10.731M62.351 74.849l7.675-5.842-6.452-12.497 6.113-13.788"/><ellipse style="opacity:1;fill:none;stroke:#000;stroke-width:2;stroke-linecap:round;stroke-linejoin:round;stroke-dasharray:none" cx="80.466" cy="46.033" rx="1.524" ry="2.857" transform="rotate(6.336)"/><path style="opacity:1;fill:none;stroke:#000;stroke-width:2;stroke-linecap:round;stroke-linejoin:round;stroke-dasharray:none" d="m64.117 73.015-6.86-2.989"/><ellipse style="opacity:1;fill:none;stroke:#000;stroke-width:2;stroke-linecap:round;stroke-linejoin:round;stroke-dasharray:none" transform="rotate(-18.373)" ry="19.408" rx="14.201" cy="67.137" cx="14.345"/><path style="opacity:1;fill:none;stroke:#000;stroke-width:2;stroke-linecap:round;stroke-linejoin:round;stroke-dasharray:none" d="m30.36 40.209 6.793-2.038c23.376 5.727 17.417 35.82 11.07 37.153l-6.452 2.173"/><path style="opacity:1;fill:none;stroke:#000;stroke-width:2;stroke-linecap:round;stroke-linejoin:round;stroke-dasharray:none" d="M52.095 73.218c20.696-7.174 8.694-46.102-13.788-34.91"/><ellipse style="opacity:1;fill:none;stroke:#000;stroke-width:2;stroke-linecap:round;stroke-linejoin:round;stroke-dasharray:none" cx="25.155" cy="64.292" rx="1.63" ry="2.547" transform="rotate(-11.524)"/><path style="opacity:1;fill:none;stroke:#000;stroke-width:2;stroke-linecap:round;stroke-linejoin:round;stroke-dasharray:none" d="m37.75 22.38 3.842-2.209 39.19 8.645.096 42.937-4.323 2.113"/><path style="opacity:1;fill:none;stroke:#000;stroke-width:2;stroke-linecap:round;stroke-linejoin:round;stroke-dasharray:none" d="m41.024 28.73 7.471 7.472 12.702-3.668"/></g></svg>