<svg width="100mm" height="100mm" viewBox="0 0 100 100" xml:space="preserve" xmlns="http://www.w3.org/2000/svg"><g style="display:inline;fill:none;stroke:#000;stroke-width:2;stroke-linecap:round;stroke-linejoin:round;stroke-dasharray:none;stroke-opacity:1"><path style="fill:none;stroke:#000;stroke-width:2.15861;stroke-linecap:round;stroke-linejoin:round" d="m40.34 45.985-23.457-.953c-14.789-7.717-17.389 8.543-1.32 3.885L43.42 51.19l2.272 1.686-8.063 14.368c-17.755 10.073 8.8 15.665 4.398 1.173l7.697-11.876 11.143 9.31 1.99-2.165L66.3 62.03l3.216.156.293-10.776-10.336-8.21-.22-1.833-8.503-6.305-2.42-.806-10.32-7.514-6.98 2.456-.073 7.33zM54.196 36.015l2.712-4.398c-3.966-11.194 16.489-7.164 3.886 1.173l-3.153 5.938"/><path style="fill:none;stroke:#000;stroke-width:2.15861;stroke-linecap:round;stroke-linejoin:round" d="m67.171 48.258 17.008.513c18.348-7.699 14.938 11.173-.587 3.958l-13.268-.586M31.617 30.517l8.357 7.698.367 1.612 8.137 6.745 2.053.366 10.336 8.357 2.2-1.026-1.467-1.76 3.299-1.759 2.639 2.273 1.833-.953M61.307 55.442l-.293 9.31M54.856 50.97v8.65M40.56 40.56l-.072 4.252M40.927 46.058c4.727-.48 5.672 4.123 2.493 4.472M46.132 52.803c2.594-2.499 5.763-.823 3.519 3.299M35.757 30.57l4.462 3.725 2.28-.933-4.762-3.665zM43.329 38.598l7.05 5.339M56.392 42.64l-7.05-5.183M34.154 73.172l5.857-2.229M38.871 73.95l-2.384-3.421M7.821 46.788l3.421-1.452M11.45 47.306l-2.955-1.97M88.893 49.431l3.11 1.504M88.737 51.505l3.68-2.23M58.983 28.904l3.059-1.192M61.73 29.526l-2.02-2.28M69.35 61.665l-6.894-6.169M36.602 36.309l-1.723.696-2.932-1.356M53.8 46.114l4.769 3.836M61.73 48.395l-4.198-3.525"/></g></svg>