<svg width="100mm" height="100mm" viewBox="0 0 100 100" xml:space="preserve" xmlns="http://www.w3.org/2000/svg"><path style="opacity:1;fill:none;stroke:#000;stroke-width:2;stroke-linecap:round;stroke-linejoin:round" d="M28.527 45.371c.29 13.595 44.46 11.822 44.963-.136M46.458 19.425v19.833c1.765 2.796 7.15 2.803 8.558-.136l-.272-19.833c-2.881-2.115-6.5-1.777-8.286.136z"/><path style="opacity:1;fill:none;stroke:#000;stroke-width:2;stroke-linecap:round;stroke-linejoin:round" d="M45.914 34.911c-7.676 1.425-14.042 4.16-17.387 9.917l-.272 17.116c.216 16.224 44.45 15.599 44.284.407L73.626 45.1c-3.642-5.55-9.31-9.073-17.66-9.916"/><path style="opacity:1;fill:none;stroke:#000;stroke-width:2;stroke-linecap:round;stroke-linejoin:round" d="M28.255 61.4c3.598 8.977 39.233 9.773 44.216 0M30.632 44.352l.612 2.853c7.358-6.917 8.313-8.782-.612-2.853zM34.775 49.378c5.788-5.321 10.844-9.009 8.966 2.785zM48.97 52.163c1.8-9.07 5.243-9.922 10.664-.883zM65 50.125c-.662-3.057-8.802-12.345 5.434-2.988zM68.583 41.784l1.92 1.825c-5.688-3.571-9.915-6.594-1.92-1.825z"/><path style="opacity:1;fill:none;stroke:#000;stroke-width:2;stroke-linecap:round;stroke-linejoin:round" d="M32.67 60.993c6.133 4.127 21.164 5.028 28.255 1.902M27.568 59.073l-7.3.961-.289 6.628 9.03-.673M19.883 61.187 4.13 62.53l-.288 4.035 15.369-1.25M33.62 57.936c4.687 2.807 9.374 2.712 14.06 2.31M46.73 22.006c2.688.822 5.368 1.528 7.878-.136M46.865 25.199c2.445.892 4.89 1.623 7.336.203M46.662 29.478c2.535.688 5.07 1.328 7.607.067"/></svg>