<svg width="100mm" height="100mm" viewBox="0 0 100 100" xml:space="preserve" xmlns="http://www.w3.org/2000/svg"><g style="stroke-width:2;stroke-dasharray:none"><ellipse style="opacity:1;fill:none;stroke:#000;stroke-width:2;stroke-linecap:round;stroke-linejoin:round;stroke-dasharray:none" cx="41.339" cy="57.543" rx="3.627" ry="3.662"/><ellipse style="opacity:1;fill:none;stroke:#000;stroke-width:2;stroke-linecap:round;stroke-linejoin:round;stroke-dasharray:none" ry="3.443" rx="3.457" cy="56.208" cx="61.421"/><path style="opacity:1;fill:none;stroke:#000;stroke-width:2;stroke-linecap:round;stroke-linejoin:round;stroke-dasharray:none" d="M43.831 53.68c3.985-10.725 2.512-24.654 1.388-37.186-.76-4.053-3.068-4.693-5.6-4.734.16 14.358-3.271 29.462-.562 41.71M36.459 57.332C24.254 59.387 13.93 66.957 3.947 74.044c-2.931 2.504-2.463 5.009-1.474 7.513 12.322-6.47 25.41-11.218 36.794-19.801M45.938 57.332C58.27 61.349 69.782 71.379 81.609 79.1c-1.615 2.173-3.074 4.551-8.145 2.176-10.645-5.69-22.056-10.407-30.054-19.45M59.49 52.346c-3.88-11.425-1.505-23.514-.35-35.53.984-2.915 2.983-3.363 5.476-3.511.132 13.06 2.352 26.121-.702 39.182M63.212 60.351c10.08 9.707 22.72 13.232 33.915 20.083 1.642-2.745 1.002-5.283-1.474-7.654-9.342-6.48-18.63-13.72-29.633-16.572M57.055 55.923c-2.466.61-4.932 1.58-7.398 2.582M59.438 60.143l-2.036 2.284"/><path style="opacity:1;fill:none;stroke:#000;stroke-width:2;stroke-linecap:round;stroke-linejoin:round;stroke-dasharray:none" d="M43.55 62.03c-6.73 4.79-13.629 9.128-20.755 12.86 1.612 2.892 4.04 4.274 8.292 2.284 6.333-2.901 12.805-5.57 18.768-9.087"/></g></svg>