<svg width="100mm" height="100mm" viewBox="0 0 100 100" xml:space="preserve" xmlns="http://www.w3.org/2000/svg"><path style="opacity:1;fill:none;stroke:#000;stroke-width:2.63324;stroke-linecap:round;stroke-linejoin:round;stroke-dasharray:none" d="m19.827 73.726 24.666-17.134M60.053 46.053l24.234-17.24"/><circle style="opacity:1;fill:none;stroke:#000;stroke-width:2;stroke-linecap:round;stroke-linejoin:round;stroke-dasharray:none" cx="83.126" cy="87.56" r="1.46"/><path style="opacity:1;fill:none;stroke:#000;stroke-width:5.26648;stroke-linecap:round;stroke-linejoin:round;stroke-dasharray:none" d="m14.676 76.773 4.87-3.124M89.335 25.191l-4.259 3.162"/><path style="opacity:1;fill:none;stroke:#000;stroke-width:2.63324;stroke-linecap:round;stroke-linejoin:round;stroke-dasharray:none" d="m44.605 56.61 5.422-5.147 4.04-2.79 5.932-2.571c-2.006 3.082-4.77 4.98-3.446 8.923.098.29-.624.634-.461.941-.312-.252-.666.4-.972.21-3.797-2.376-7.108-1.153-10.515.433zM56.115 56.17l25.601 29.695"/><path style="fill:none;stroke:#000;stroke-width:2.63324;stroke-linecap:round;stroke-linejoin:round;stroke-dasharray:none" d="M51.367 36.962c-7.783-.954-10.703 2.093-11.694 9.313M54.24 25.21c-14.735-2.472-26.748 6.857-27.556 20.075"/><path style="fill:none;stroke:#000;stroke-width:2.63324;stroke-linecap:round;stroke-linejoin:round;stroke-dasharray:none" d="M56.987 10.65C29.627 8.628 16.414 21.998 11.17 45.177"/></svg>