<svg width="100mm" height="100mm" viewBox="0 0 100 100" xml:space="preserve" xmlns="http://www.w3.org/2000/svg"><path style="opacity:1;fill:none;stroke:#000;stroke-width:2.54793;stroke-linecap:round;stroke-linejoin:round;stroke-dasharray:none" transform="matrix(.92372 .38306 -.96357 .26744 0 0)" d="M90.603 36.204h12.855v10.23H90.603z"/><path style="fill:none;stroke:#000;stroke-width:2.54793;stroke-linecap:round;stroke-linejoin:round;stroke-dasharray:none" transform="matrix(.92372 .38306 -.96357 .26744 0 0)" d="M96.938 24.442h6.786v5.401h-6.786z"/><path style="fill:none;stroke:#000;stroke-width:2.54792656;stroke-linecap:round;stroke-linejoin:round;stroke-dasharray:none" transform="matrix(.92372 .38306 -.96357 .26744 0 0)" d="M80.693 45.122h4.233v3.369h-4.233z"/><path style="fill:none;stroke:#000;stroke-width:2.54793;stroke-linecap:round;stroke-linejoin:round;stroke-dasharray:none" transform="matrix(.92372 .38306 -.96357 .26744 0 0)" d="M81.144 38.102h4.233v3.369h-4.233z"/><path style="opacity:1;fill:none;stroke:#000;stroke-width:2;stroke-linecap:round;stroke-linejoin:round;stroke-dasharray:none" d="M81.07 69.831c12.699 1.012 11.46-6.358 7.396-8.164M19.835 63.732l2.594 1.585 6.147-2.93-4.658-2.833-2.498 1.056M23.39 65.797l3.937 2.594 6.004-2.978-4.515-2.882M28.192 68.919l4.418 3.026 5.38-3.026-4.755-3.218M33.33 72.28l5.092 3.219 2.545-1.681.336-3.218-2.785-1.633M52.158 77.516l6.387-2.882-5.043-4.082-1.585.48M58.545 74.442l7.252-3.506-4.706-3.89-7.349 3.266M65.269 65.461l-3.938 1.537 4.562 3.986 3.41-1.489M53.046 55.56c1.494 0 15.486-5.299 15.486-5.299M57.665 58.208l16.097-5.705"/><path style="opacity:1;fill:none;stroke:#000;stroke-width:2;stroke-linecap:round;stroke-linejoin:round" d="M16.98 43.605c-6.428-.707-13.515 5.122-.815 8.422l20.512 12.77c6.933 8.432 22.68 3.496 22.142-2.446l22.55-8.014c17.086-.909 11.72-8.55-.95-9.374L60.031 37.98c-4.991-3.668-8.658-3.81-15.433-1.477z"/><path style="opacity:1;fill:none;stroke:#000;stroke-width:2;stroke-linecap:round;stroke-linejoin:round" d="m12.905 51.891-.136 9.238c2.293 1.496 4.58 3.015 8.286.271l-.135-5.026M41.567 69.007l-.271 10.596c2.57 2.574 6.318 3.956 10.188 0v-10.46M80.826 54.608l-.272 9.917c2.763 2.404 5.023 1.79 7.064-.136l.136-10.052"/><path style="opacity:1;fill:none;stroke:#000;stroke-width:2;stroke-linecap:round;stroke-linejoin:round" d="M12.497 58.276c-.735 1.814-4.895 1.605-1.494 5.977-.684 2.663 1.355 2.618 3.183 2.225-.75 3.765 2.752 2.603 4.06 2.837.013 2.417 1.391 3.541 4.337 3.032.773 1.648.648 3.995 4.57 3.194-.512 3.281 1.686 3.654 4.24 2.964.178 2.904 2.043 4.168 5.369 3.753l.866.605c8.632 5.347 17.888 3.04 22.278-3.94l11.818-5.025"/><path style="opacity:1;fill:none;stroke:#000;stroke-width:2;stroke-linecap:round;stroke-linejoin:round" d="M63.166 62.08c14.544 11.672 9.323 20.164 1.717 15.756"/><path style="opacity:1;fill:none;stroke:#000;stroke-width:2;stroke-linecap:round;stroke-linejoin:round" d="m70.36 78.668 9.413-3.505c1.155-7.958-.46-12.146-8.213-16.858"/><path style="opacity:1;fill:none;stroke:#000;stroke-width:2;stroke-linecap:round;stroke-linejoin:round" d="M65.845 60.61c10.784 8.668 8.973 12.75 8.837 15.85"/><path style="opacity:1;fill:none;stroke:#000;stroke-width:2;stroke-linecap:round;stroke-linejoin:round" d="M68.63 59.458c7.032 4.04 9.084 9.478 8.838 15.56"/><ellipse style="opacity:1;fill:none;stroke:#000;stroke-width:2;stroke-linecap:round;stroke-linejoin:round" cx="16.761" cy="47.163" rx="3.41" ry="1.249"/><ellipse style="opacity:1;fill:none;stroke:#000;stroke-width:2;stroke-linecap:round;stroke-linejoin:round" cx="46.298" cy="63.156" rx="4.707" ry="2.065"/><ellipse style="opacity:1;fill:none;stroke:#000;stroke-width:2;stroke-linecap:round;stroke-linejoin:round" cx="84.144" cy="49.42" rx="3.842" ry="1.777"/><path style="opacity:1;fill:none;stroke:#000;stroke-width:2;stroke-linecap:round;stroke-linejoin:round" d="M23.63 50.717c-1.23 1.184-1.656 2.495 0 4.13l6.627 4.226c1.032-.956 2.27-1.788.672-4.322z"/><path style="opacity:1;fill:none;stroke:#000;stroke-width:2;stroke-linecap:round;stroke-linejoin:round" d="m24.014 50.044 9.509-2.69 8.549 4.131c1.966 2.376 1.157 4.1.096 5.763l-10.95 3.17M31.277 54.506 42.01 51.62"/><ellipse style="opacity:1;fill:none;stroke:#000;stroke-width:2;stroke-linecap:round;stroke-linejoin:round;stroke-dasharray:none" cx="51.195" cy="39.615" rx="5.145" ry="1.341"/></svg>