<svg width="100mm" height="100mm" viewBox="0 0 100 100" xml:space="preserve" xmlns="http://www.w3.org/2000/svg"><g style="stroke-width:2;stroke-dasharray:none"><path style="opacity:1;fill:none;stroke:#000;stroke-width:2.3726;stroke-linecap:round;stroke-linejoin:round;stroke-dasharray:none" d="m94.16 45.693-16.921 25.3c-3.24 3.844-7.304 2.479-11.442.645l-53.5-19.177c-4.612-1.377-6.632-3.74-2.257-8.54l15.148-19.66c1.9-2.09 3.95-4.06 10.314-2.58l52.534 18.05c3.802 1.104 7.157 2.463 6.768 5.962l-.967 7.574-16.76 26.267c-2.176 1.978-4.019 4.339-10.313 1.612L10.201 61.002c-2.106-.905-3.38-2.433-3.061-5.157l.367-6.994"/><path style="opacity:1;fill:none;stroke:#000;stroke-width:2.3726;stroke-linecap:round;stroke-linejoin:round;stroke-dasharray:none" d="m14.875 39.73 8.38 2.901 8.057-9.991-8.863-3.384M26.14 28.23l9.686 3.305 11.395-2.165 21.195 6.837 6.609 8.66 12.648 4.216M14.176 44.07l12.078 3.988 2.85 6.837 23.359 8.888 12.078-2.165 12.079 4.33"/><path style="opacity:1;fill:none;stroke:#000;stroke-width:2.3726;stroke-linecap:round;stroke-linejoin:round;stroke-dasharray:none" d="m35.94 35.41 10.94-2.166 18.8 6.61 4.9 7.406 14.928 5.811M29.445 44.411l4.9 8.547 18.232 6.609 11.964-2.052 14.016 4.445"/><ellipse style="opacity:1;fill:none;stroke:#000;stroke-width:2.3726;stroke-linecap:round;stroke-linejoin:round;stroke-dasharray:none" cx="11.954" cy="48.058" rx="1.424" ry="1.026"/><ellipse style="fill:none;stroke:#000;stroke-width:2.3726;stroke-linecap:round;stroke-linejoin:round;stroke-dasharray:none" cx="89.529" cy="44.171" rx="1.424" ry="1.026"/><ellipse style="fill:none;stroke:#000;stroke-width:2.3726;stroke-linecap:round;stroke-linejoin:round;stroke-dasharray:none" cx="31.44" cy="24.751" rx="1.424" ry="1.026"/><ellipse style="fill:none;stroke:#000;stroke-width:2.3726;stroke-linecap:round;stroke-linejoin:round;stroke-dasharray:none" cx="72.375" cy="69.565" rx="1.424" ry="1.026"/><ellipse style="fill:none;stroke:#000;stroke-width:2.3726;stroke-linecap:round;stroke-linejoin:round;stroke-dasharray:none" cx="41.095" cy="49.041" rx="1.424" ry="1.026" transform="rotate(22.289)"/><ellipse style="fill:none;stroke:#000;stroke-width:2.3726;stroke-linecap:round;stroke-linejoin:round;stroke-dasharray:none" cx="83.339" cy="47.184" rx="1.424" ry="1.026" transform="rotate(22.289)"/></g><path style="opacity:1;fill:none;stroke:#000;stroke-width:2.3726;stroke-linecap:round;stroke-linejoin:round;stroke-dasharray:none" d="m24.887 62.985 12.079 4.33M44.714 70.05l8.66 3.19M46.765 40.081l12.99 4.558M40.726 43.728l12.307 4.216M41.068 49.653l12.192 4.33"/><ellipse style="opacity:1;fill:none;stroke:#000;stroke-width:2.3726;stroke-linecap:round;stroke-linejoin:round;stroke-dasharray:none" cx="-13.172" cy="105.145" rx="2.735" ry="1.709" transform="rotate(-64.195)"/></svg>