<svg width="100mm" height="100mm" viewBox="0 0 100 100" xml:space="preserve" xmlns="http://www.w3.org/2000/svg"><path style="opacity:1;fill:none;stroke:#000;stroke-width:2;stroke-linecap:round;stroke-linejoin:round;stroke-dasharray:none" d="M58.249 33.923c-.604.86-.975 1.864-.507 3.393l5.723 6.887c1.147.466 2.286.98 3.696 0l5.925-5.013c.776-1.367.844-2.735 0-4.102l-4.861-5.823c-1.793-1.312-3.093-1.141-4.355-.861z"/><path style="opacity:1;fill:none;stroke:#000;stroke-width:2;stroke-linecap:round;stroke-linejoin:round;stroke-dasharray:none" d="M64.275 28.302c.047.777.29 2.06.962 2.836l5.419 6.38c.996.875 1.503 1.108 2.633 1.317M59.008 39.291l-1.316 1.469 2.633 3.089 1.52-1.064M58.18 41.44 20.51 76.46l2.076 1.933 37.097-35.02M11.486 83.12l3.51 3.652 7.877-7.949-2.793-2.65zM10.913 82.762l-3.867 4.01c.402 2.343 1.991 4 4.01 4.226l4.154-3.94z"/><path style="fill:none;stroke:#000;stroke-width:2;stroke-linecap:round;stroke-linejoin:round" d="M77.734 42.987c1.206 2.843-.54 6.847-5.24 6.595M85.352 43.662c.723 9.804-3.392 13.634-11.073 13.063M93.762 46.18c-.115 11.247-4.376 18.375-16.105 18.086M51.444 28.838c-.867-2.964 1.333-6.738 5.97-5.94M43.956 27.282c.422-9.822 4.955-13.148 12.517-11.687M35.896 23.803c1.422-11.157 6.484-17.742 18.1-16.09"/></svg>